# xmcd CD database file
#
# Track frame offsets:
#	150
#	13538
#	25724
#	34722
#	47745
#	61294
#	71042
#	84452
#	97667
#	109408
#	126332
#
# Disc length: 1842 seconds
#
# Revision: 0
# Processed by: cddbd v1.5PL3 Copyright (c) Steve Scherf et al.
# Submitted via: CDex 1.51
#
DISCID=8807300b
DTITLE=Ray Price - Hank n me
DYEAR=1900
DGENRE=Country
TTITLE0=Why Don't You Love Me
TTITLE1=I'm so lonsome I could cry
TTITLE2=Jambalaya
TTITLE3=I Can't help it
TTITLE4=Your cheatin heart
TTITLE5=Hey good lookin'
TTITLE6=Kaw-liga
TTITLE7=A mansion on the hill
TTITLE8=Half as much
TTITLE9=Cold, cold heart
TTITLE10=You win again
EXTD=
EXTT0=
EXTT1=
EXTT2=
EXTT3=
EXTT4=
EXTT5=
EXTT6=
EXTT7=
EXTT8=
EXTT9=
EXTT10=
PLAYORDER=
